<?xml version="1.0" encoding="UTF-8"?>
<svg xmlns="http://www.w3.org/2000/svg" id="Kid_avatar" data-name="Kid avatar" viewBox="0 0 64 64" width="512" height="512"><path d="M19,30H16.5A3.5,3.5,0,0,1,13,26.5h0A3.5,3.5,0,0,1,16.5,23H19Z" style="fill:#ffcbbe"/><path d="M45,30h2.5A3.5,3.5,0,0,0,51,26.5h0A3.5,3.5,0,0,0,47.5,23H45Z" style="fill:#ffcbbe"/><path d="M50,61H14l.43-8.6A12,12,0,0,1,26.415,41h11.17A12,12,0,0,1,49.57,52.4Z" style="fill:#3780ea"/><path d="M38,40c0,3.314-6,10-6,10s-6-6.686-6-10a6,6,0,0,1,12,0Z" style="fill:#ffcbbe"/><path d="M32,42h0A14,14,0,0,1,18,28V15l6-5H40l6,5V28A14,14,0,0,1,32,42Z" style="fill:#ffddce"/><path d="M47,23H45l-2.342-4.683A6,6,0,0,0,37.292,15H26.325a6,6,0,0,0-5.088,2.82L18,23H17V12.854a3,3,0,0,1,1.658-2.683L19,10,18,7h4L21,3H35.686A11.313,11.313,0,0,1,47,14.314h0Z" style="fill:#3e3d42"/><path d="M40.51,40.34A15.051,15.051,0,0,0,46.7,31h.8A4.507,4.507,0,0,0,52,26.5a4.4,4.4,0,0,0-1.32-3.17A4.345,4.345,0,0,0,48,22.05V14.31A12.321,12.321,0,0,0,35.69,2H21a1,1,0,0,0-.79.38,1.022,1.022,0,0,0-.18.86L20.72,6H18a.983.983,0,0,0-.81.42,1,1,0,0,0-.14.9l.74,2.2A3.962,3.962,0,0,0,16,12.85v9.2a4.334,4.334,0,0,0-2.67,1.27A4.406,4.406,0,0,0,12,26.5,4.507,4.507,0,0,0,16.5,31h.8a15.051,15.051,0,0,0,6.19,9.34A13.074,13.074,0,0,0,13.43,52.35L13,60.95a1.025,1.025,0,0,0,.28.74A.975.975,0,0,0,14,62H50a.975.975,0,0,0,.72-.31,1.025,1.025,0,0,0,.28-.74l-.43-8.6A13.074,13.074,0,0,0,40.51,40.34ZM47,28V24h.5A2.509,2.509,0,0,1,50,26.5,2.5,2.5,0,0,1,47.5,29h-.55C46.97,28.67,47,28.34,47,28ZM16.5,29A2.5,2.5,0,0,1,14,26.5,2.509,2.509,0,0,1,16.5,24H17v4c0,.34.03.67.05,1ZM18,12.85a1.967,1.967,0,0,1,1.11-1.78l.34-.18a1,1,0,0,0,.5-1.21L19.39,8H22a1,1,0,0,0,.79-.38,1.022,1.022,0,0,0,.18-.86L22.28,4H35.69A10.328,10.328,0,0,1,46,14.31V22h-.38l-2.07-4.13A6.95,6.95,0,0,0,37.29,14H26.33a6.969,6.969,0,0,0-5.94,3.29L18,21.11ZM38,20a6.007,6.007,0,0,0-5.91,5h-.18a5.99,5.99,0,0,0-11.54-1.05l-1.1-1.09,2.81-4.51A5,5,0,0,1,26.33,16H37.29a4.968,4.968,0,0,1,4.47,2.76l2.35,4.69a.035.035,0,0,1,.01.02l-.49.48A6,6,0,0,0,38,20Zm4,6a4,4,0,1,1-4-4A4,4,0,0,1,42,26ZM30,26a4,4,0,1,1-4-4A4,4,0,0,1,30,26ZM19,28V25.41l1.02,1.03A5.994,5.994,0,0,0,31.91,27h.18a5.994,5.994,0,0,0,11.89-.56L45,25.41V28a13,13,0,0,1-26,0ZM36.22,42.39A35.523,35.523,0,0,1,32,48.46a35.46,35.46,0,0,1-4.21-6.07,14.867,14.867,0,0,0,8.43,0ZM15.05,60l.38-7.55a11.047,11.047,0,0,1,10.01-10.4c1.37,3.63,5.62,8.4,5.82,8.62a.995.995,0,0,0,1.48,0c.2-.22,4.43-4.96,5.81-8.62a11.048,11.048,0,0,1,10.02,10.4L48.95,60Z"/><path d="M25,25v2a1,1,0,0,0,2,0V25a1,1,0,0,0-2,0Z"/><path d="M37,25v2a1,1,0,0,0,2,0V25a1,1,0,0,0-2,0Z"/><path d="M39,34H37c0,1.626-2.29,3-5,3s-5-1.374-5-3H25c0,2.8,3.075,5,7,5S39,36.8,39,34Z"/></svg>
